# xmcd
#
# Track frame offsets: 
#        150
#        16622
#        30537
#        43355
#        63257
#        83602
#        102230
#        112947
#        135265
#        148500
#        171007
#        184962
#        199065
#        218440
#        232167
#        244142
#        263822
#        276267
#        292710
#
# Disc length: 4147 seconds
#
# Revision: 3
# Processed by: cddbd v1.5.2PL0 Copyright (c) Steve Scherf et al.
# Submitted via: ExactAudioCopyFreeDBPlugin 1.0
#
DISCID=02103113
DTITLE=Various Artist - Nothing But The Blues CD 1
DYEAR=1995
DGENRE=Blues
TTITLE0=Stevie Ray Vaughan - Pride And Joy
TTITLE1=Howlin' Wolf - Smokestack Lightning
TTITLE2=Fleetwood Mac - Black Magic Woman
TTITLE3=Little Milton - Stormy Monday
TTITLE4=Robben Ford - Misdirected Blues
TTITLE5=John Mayall - Not At Home
TTITLE6=Little Walter - Just Your Fool
TTITLE7=B.B. King - The Thrill Is Gone
TTITLE8=Taj Mahal - Statesboro' Blues
TTITLE9=John Lee Hooker with John Hammond - Father Was A Jockey
TTITLE10=Sonny Boy Williamson - Help Me
TTITLE11=A.C. Reed - These Blues Is Killing Me
TTITLE12=Walter Trout Band - Sweet As A Flower
TTITLE13=Slim Harpo - I'm A King Bee
TTITLE14=Otis Spann - I'm Leavin' You
TTITLE15=Buddy Guy - Someone Else Is Steppin' In (Slippin' Out, Slippi
TTITLE15=n' In)
TTITLE16=Albert King - Born Under A Bad Sign
TTITLE17=Sonny Terry with Johnny Winter and Willie Dixon - I Think I Got
TTITLE17=The Blues
TTITLE18=Lil' Ed and The Blues Imperials - You Don't Exist Anymore
EXTD=
EXTT0=
EXTT1=
EXTT2=
EXTT3=
EXTT4=
EXTT5=
EXTT6=
EXTT7=
EXTT8=
EXTT9=
EXTT10=
EXTT11=
EXTT12=
EXTT13=
EXTT14=
EXTT15=
EXTT16=
EXTT17=
EXTT18=
PLAYORDER=
